# xmcd
#
# Track frame offsets:
#	294
#	16619
#	29696
#	46334
#	66136
#	82090
#	101618
#	117540
#	136765
#	153426
#	172573
#	190040
#
# Disc length: 2796 seconds
#
# Revision: 1
# Processed by: cddbd v1.5.2PL0 Copyright (c) Steve Scherf et al.
# Submitted via: audiograbber 1.83.01
#
DISCID=910ae90c
DTITLE=Carolina Rain - Weather the Storm
DYEAR=2006
DGENRE=Country
TTITLE0=Carolina Rain
TTITLE1=Get Outta My Way
TTITLE2=Isn't She
TTITLE3=Dealin'
TTITLE4=I Ain't Scared
TTITLE5=How It Should Be
TTITLE6=All Before the Sun Goes Down
TTITLE7=Someone's Child
TTITLE8=That's Alright with Me
TTITLE9=The Man I've Been Looking For
TTITLE10=Sweet Virginia Kiss
TTITLE11=Who Needs the Sun
EXTD=YEAR: 2006\nCorrected T10 title.
EXTT0=
EXTT1=
EXTT2=
EXTT3=
EXTT4=
EXTT5=
EXTT6=
EXTT7=
EXTT8=
EXTT9=
EXTT10=
EXTT11=
PLAYORDER=
